<svg width="15" height="16" viewBox="0 0 15 16" fill="none" xmlns="http://www.w3.org/2000/svg">
<path d="M0.207386 16H3.23295V5.09091H0.207386V16ZM1.72727 3.68466C2.62926 3.68466 3.3679 2.99574 3.3679 2.15057C3.3679 1.3125 2.62926 0.623579 1.72727 0.623579C0.832386 0.623579 0.09375 1.3125 0.09375 2.15057C0.09375 2.99574 0.832386 3.68466 1.72727 3.68466ZM7.88217 9.69318C7.88928 8.28693 8.72734 7.46307 9.94893 7.46307C11.1634 7.46307 11.895 8.25852 11.8879 9.59375V16H14.9134V9.05398C14.9134 6.51136 13.4219 4.94886 11.1492 4.94886C9.5299 4.94886 8.35803 5.74432 7.86797 7.01562H7.74013V5.09091H4.8566V16H7.88217V9.69318Z" fill="white"/>
</svg>
