<svg width="88" height="12" viewBox="0 0 88 12" fill="none" xmlns="http://www.w3.org/2000/svg">
<path d="M2.63991 11L3.3956 8.67827H7.0696L7.82528 11H10.1321L6.62216 0.818182H3.84801L0.333097 11H2.63991ZM3.94247 6.99787L5.19531 3.14489H5.27486L6.5277 6.99787H3.94247ZM19.3139 0.818182H17.1712V7.22159H17.0817L12.6868 0.818182H10.7976V11H12.9503V4.59162H13.0249L17.4546 11H19.3139V0.818182ZM20.1447 2.59304H23.2619V11H25.3898V2.59304H28.507V0.818182H20.1447V2.59304ZM32.0043 11H34.157V7.39062H35.728L37.657 11H40.0334L37.8708 7.04261C39.0292 6.54545 39.6705 5.53622 39.6705 4.14418C39.6705 2.12074 38.3332 0.818182 36.0214 0.818182H32.0043V11ZM34.157 5.66051V2.57812H35.6087C36.8516 2.57812 37.4532 3.12997 37.4532 4.14418C37.4532 5.15341 36.8516 5.66051 35.6187 5.66051H34.157ZM43.9193 11.1491C46.236 11.1491 47.6778 9.56321 47.6778 7.21165C47.6778 4.84517 46.236 3.2642 43.9193 3.2642C41.6025 3.2642 40.1608 4.84517 40.1608 7.21165C40.1608 9.56321 41.6025 11.1491 43.9193 11.1491ZM43.9292 9.50852C42.8603 9.50852 42.3135 8.52912 42.3135 7.19673C42.3135 5.86435 42.8603 4.87997 43.9292 4.87997C44.9782 4.87997 45.5251 5.86435 45.5251 7.19673C45.5251 8.52912 44.9782 9.50852 43.9292 9.50852ZM48.5347 11H50.6228V9.77699H50.7172C51.0106 10.4134 51.6519 11.1243 52.8849 11.1243C54.6249 11.1243 55.9822 9.74716 55.9822 7.19176C55.9822 4.56676 54.5652 3.2642 52.8898 3.2642C51.6121 3.2642 51.0006 4.02486 50.7172 4.64631H50.6526V0.818182H48.5347V11ZM50.6079 7.18182C50.6079 5.8196 51.1846 4.94957 52.2137 4.94957C53.2627 4.94957 53.8195 5.85938 53.8195 7.18182C53.8195 8.5142 53.2527 9.43892 52.2137 9.43892C51.1945 9.43892 50.6079 8.54403 50.6079 7.18182ZM60.2856 11.1491C62.6024 11.1491 64.0441 9.56321 64.0441 7.21165C64.0441 4.84517 62.6024 3.2642 60.2856 3.2642C57.9689 3.2642 56.5271 4.84517 56.5271 7.21165C56.5271 9.56321 57.9689 11.1491 60.2856 11.1491ZM60.2956 9.50852C59.2267 9.50852 58.6798 8.52912 58.6798 7.19673C58.6798 5.86435 59.2267 4.87997 60.2956 4.87997C61.3446 4.87997 61.8914 5.86435 61.8914 7.19673C61.8914 8.52912 61.3446 9.50852 60.2956 9.50852ZM68.9231 3.36364H67.4863V1.53409H65.3684V3.36364H64.3243V4.95455H65.3684V8.93182C65.3584 10.4283 66.3776 11.169 67.9138 11.1044C68.4607 11.0845 68.8485 10.9751 69.0623 10.9055L68.7292 9.32955C68.6248 9.34943 68.401 9.39915 68.2022 9.39915C67.7796 9.39915 67.4863 9.24006 67.4863 8.65341V4.95455H68.9231V3.36364ZM69.7427 11H71.8606V3.36364H69.7427V11ZM70.8066 2.37926C71.438 2.37926 71.955 1.89702 71.955 1.3054C71.955 0.71875 71.438 0.236505 70.8066 0.236505C70.1802 0.236505 69.6631 0.71875 69.6631 1.3054C69.6631 1.89702 70.1802 2.37926 70.8066 2.37926ZM76.4474 11.1491C78.4808 11.1491 79.7585 9.95597 79.8579 8.20099H77.8593C77.7351 9.01634 77.1981 9.47372 76.4723 9.47372C75.4829 9.47372 74.8416 8.64347 74.8416 7.18182C74.8416 5.74006 75.4879 4.91477 76.4723 4.91477C77.2478 4.91477 77.745 5.42685 77.8593 6.1875H79.8579C79.7684 4.42259 78.4311 3.2642 76.4375 3.2642C74.1207 3.2642 72.6889 4.87003 72.6889 7.21165C72.6889 9.53338 74.0958 11.1491 76.4474 11.1491ZM87.0076 5.54119C86.8187 4.13423 85.6852 3.2642 83.7562 3.2642C81.8024 3.2642 80.5147 4.16903 80.5197 5.64062C80.5147 6.78409 81.2356 7.52486 82.7271 7.82315L84.0495 8.08665C84.7157 8.22088 85.019 8.46449 85.0289 8.8473C85.019 9.29972 84.5268 9.62287 83.786 9.62287C83.0303 9.62287 82.5282 9.29972 82.3989 8.67827L80.3158 8.78764C80.5147 10.2493 81.7576 11.1491 83.781 11.1491C85.7597 11.1491 87.1766 10.1399 87.1816 8.63352C87.1766 7.52983 86.4558 6.86861 84.9742 6.56534L83.5921 6.28693C82.8812 6.13281 82.6177 5.8892 82.6227 5.52131C82.6177 5.06392 83.1347 4.76562 83.791 4.76562C84.5268 4.76562 84.9643 5.16832 85.0687 5.66051L87.0076 5.54119Z" fill="white"/>
</svg>
